<svg height="512pt" viewBox="0 0 512 512" width="512pt" xmlns="http://www.w3.org/2000/svg"><path d="m512 256c0 141.386719-114.613281 256-256 256s-256-114.613281-256-256 114.613281-256 256-256 256 114.613281 256 256zm0 0" fill="#ffda2d"/><path d="m402.695312 145.765625-34.75-34.75-29.128906 29.132813-8.59375-8.59375-221.195312 221.195312 158.960937 158.960938c135.816407-6.261719 244.011719-118.347657 244.011719-255.710938 0-.511719-.015625-1.023438-.019531-1.535156l-108.992188-108.992188zm0 0" fill="#fdbf00"/><path d="m403 145.453125v155.613281l-21.53125 17.226563h-253.691406l-18.777344-17.226563v-155.613281zm0 0" fill="#47568c"/><path d="m403 145.453125v155.613281l-21.53125 17.226563h-125.46875v-172.839844zm0 0" fill="#2c3b73"/><path d="m126.226562 162.679688h259.546876v155.613281h-259.546876zm0 0" fill="#4bb9ec"/><path d="m256 162.679688h129.773438v155.613281h-129.773438zm0 0" fill="#0095ff"/><path d="m298.550781 346.890625-17.226562 52.253906h-50.648438l-17.226562-52.253906zm0 0" fill="#47568c"/><path d="m298.550781 346.890625-17.226562 52.253906h-25.324219v-52.253906zm0 0" fill="#2c3b73"/><path d="m178.480469 387.773438h155.039062v17.226562h-155.039062zm0 0" fill="#61729b"/><path d="m256 387.773438h77.519531v17.226562h-77.519531zm0 0" fill="#47568c"/><path d="m144.027344 111h223.945312v215.90625h-223.945312zm0 0" fill="#f2f2fc"/><path d="m256 111h111.972656v215.90625h-111.972656zm0 0" fill="#d8d8fc"/><path d="m178.480469 128.226562v51.679688h155.039062v-51.679688zm0 0" fill="#ff641a"/><path d="m256 128.226562h77.519531v51.679688h-77.519531zm0 0" fill="#f03800"/><g fill="#d8d8fc"><path d="m178.480469 197.132812h155.039062v17.226563h-155.039062zm0 0"/><path d="m178.480469 232.160156h155.039062v17.226563h-155.039062zm0 0"/><path d="m178.480469 266.613281h155.039062v17.226563h-155.039062zm0 0"/></g><path d="m256 197.132812h77.519531v17.226563h-77.519531zm0 0" fill="#a3a3d1"/><path d="m256 232.160156h77.519531v17.226563h-77.519531zm0 0" fill="#a3a3d1"/><path d="m256 266.613281h77.519531v17.226563h-77.519531zm0 0" fill="#a3a3d1"/><path d="m109 301.066406h294v51.679688h-294zm0 0" fill="#61729b"/><path d="m256 301.066406h147v51.679688h-147zm0 0" fill="#47568c"/></svg>